<?xml version="1.0" encoding="UTF-8" standalone="no"?>
<!-- Uploaded to: SVG Repo, www.svgrepo.com, Generator: SVG Repo Mixer Tools -->

<svg
   height="800"
   width="505.38281"
   version="1.1"
   id="Layer_1"
   viewBox="0 0 323.445 512"
   xml:space="preserve"
   sodipodi:docname="pin-standard.svg"
   inkscape:version="1.3.2 (091e20e, 2023-11-25)"
   xmlns:inkscape="http://www.inkscape.org/namespaces/inkscape"
   xmlns:sodipodi="http://sodipodi.sourceforge.net/DTD/sodipodi-0.dtd"
   xmlns="http://www.w3.org/2000/svg"
   xmlns:svg="http://www.w3.org/2000/svg"><defs
   id="defs3" /><sodipodi:namedview
   id="namedview3"
   pagecolor="#ffffff"
   bordercolor="#666666"
   borderopacity="1.0"
   inkscape:showpageshadow="2"
   inkscape:pageopacity="0.0"
   inkscape:pagecheckerboard="0"
   inkscape:deskcolor="#d1d1d1"
   inkscape:zoom="0.295"
   inkscape:cx="254.23729"
   inkscape:cy="400"
   inkscape:window-width="1392"
   inkscape:window-height="937"
   inkscape:window-x="2736"
   inkscape:window-y="947"
   inkscape:window-maximized="0"
   inkscape:current-layer="Layer_1" />
<path
   style="fill:#797979;fill-opacity:1"
   d="M 161.722,0 C 72.406,0 10e-4,72.405 10e-4,161.722 10e-4,242.982 62.973,396.928 161.723,512 260.473,396.929 323.445,242.982 323.445,161.722 323.445,72.405 251.039,0 161.722,0 Z"
   id="path1" />
<g
   style="opacity:0.1"
   id="g2"
   transform="translate(-94.277)">
	<path
   d="M 168.207,125.87 C 183.942,61.805 235.837,16.129 296.841,5.206 283.794,1.811 270.109,0 255.999,0 166.683,0 94.277,72.405 94.277,161.722 c 0,73.715 51.824,207.247 135.167,317.311 C 170.39,349.158 150.032,199.872 168.207,125.87 Z"
   id="path2" />
</g>
<path
   style="fill:#ffffff"
   d="m 161.722,235.715 c -40.81,0 -74.014,-33.203 -74.019,-74.014 0.005,-40.795 33.209,-73.998 74.019,-73.998 40.81,0 74.014,33.203 74.019,74.014 -0.003,40.796 -33.209,73.998 -74.019,73.998 z"
   id="path3" />
</svg>
