<?xml version="1.0" encoding="UTF-8" standalone="no"?>
<!-- Created with Inkscape (http://www.inkscape.org/) -->

<svg
   width="210mm"
   height="210mm"
   viewBox="0 0 210 210"
   version="1.1"
   id="svg1"
   xml:space="preserve"
   inkscape:version="1.3.2 (091e20e, 2023-11-25)"
   sodipodi:docname="favicon.svg"
   xmlns:inkscape="http://www.inkscape.org/namespaces/inkscape"
   xmlns:sodipodi="http://sodipodi.sourceforge.net/DTD/sodipodi-0.dtd"
   xmlns="http://www.w3.org/2000/svg"
   xmlns:svg="http://www.w3.org/2000/svg"><sodipodi:namedview
     id="namedview1"
     pagecolor="#000000"
     bordercolor="#666666"
     borderopacity="1.0"
     inkscape:showpageshadow="2"
     inkscape:pageopacity="0.0"
     inkscape:pagecheckerboard="true"
     inkscape:deskcolor="#d1d1d1"
     inkscape:document-units="mm"
     inkscape:zoom="0.8720439"
     inkscape:cx="449.51865"
     inkscape:cy="525.77628"
     inkscape:window-width="2560"
     inkscape:window-height="1686"
     inkscape:window-x="2850"
     inkscape:window-y="199"
     inkscape:window-maximized="0"
     inkscape:current-layer="layer1"
     labelstyle="default"
     showborder="true" /><defs
     id="defs1" /><g
     inkscape:label="Layer 1"
     inkscape:groupmode="layer"
     id="layer1"><rect
       style="fill:#ffffff;fill-opacity:1;stroke:none;stroke-width:8.353;stroke-linecap:round;stroke-linejoin:round;stroke-dasharray:none;stroke-opacity:1;paint-order:normal"
       id="rect1"
       width="210"
       height="210"
       x="0"
       y="2.5923708e-14"
       ry="27.776857" /><path
       style="fill:#000000"
       d="m 21.212683,190.85359 c -1.0433,-0.45355 -1.92112,-1.81911 -1.92246,-2.99061 -0.001,-0.93789 1.62233,-4.19784 7.99955,-16.064 2.03339,-3.78354 4.65374,-8.6651 5.82301,-10.84791 1.16927,-2.18281 2.86453,-5.33797 3.76724,-7.01146 0.90271,-1.67349 2.86642,-5.36443 4.36381,-8.20208 1.49738,-2.83766 3.34432,-6.29047 4.10431,-7.67292 0.75999,-1.38245 2.13228,-3.94229 3.04954,-5.68854 0.91725,-1.74625 3.86916,-7.28266 6.5598,-12.30312 2.69064,-5.02047 5.54508,-10.37828 6.34321,-11.90625 0.79812,-1.52797 2.252,-4.26641 3.23083,-6.08542 0.97884,-1.81901 4.07874,-7.712595 6.88866,-13.096865 2.80993,-5.38427 6.62461,-12.64709 8.47706,-16.13959 1.85245,-3.492497 4.10998,-7.750622 5.01674,-9.462497 1.27521,-2.407486 1.79608,-3.149505 2.29956,-3.27587 0.91718,-0.230197 1.264,0.201883 3.98058,4.959091 3.47271,6.081326 2.92229,5.774886 4.61381,2.568659 0.79125,-1.499784 2.30871,-4.453286 3.37214,-6.563337 1.063427,-2.110052 2.023327,-3.955521 2.133107,-4.101042 0.10977,-0.145521 1.40204,-2.662055 2.8717,-5.592297 1.46966,-2.930243 2.86254,-5.40079 3.09528,-5.490104 0.69509,-0.266728 1.62032,-0.184751 1.89997,0.168339 0.14407,0.181901 0.65092,1.045104 1.12632,1.918229 0.82405,1.513418 1.64904,3.018984 7.94538,14.499872 l 2.72832,4.974872 0.61627,-1.514755 c 0.73905,-1.81655 1.29421,-2.481865 2.07094,-2.481865 0.97928,0 0.81696,-0.270873 8.7996,14.684375 4.57639,8.57374 7.27802,13.58715 12.76083,23.680205 6.56938,12.09327 5.5051,10.10392 18.18915,33.99895 2.47188,4.65667 5.92391,11.20511 7.67119,14.55209 1.74728,3.34697 5.70757,10.84791 8.80063,16.66874 9.54687,17.96622 10.32182,19.53005 10.3174,20.82032 -0.005,1.51186 -0.46749,2.364 -1.58728,2.92563 -0.87237,0.43753 -5.41055,0.46207 -83.73694,0.45266 -70.506887,-0.008 -82.941597,-0.0652 -83.669257,-0.3815 z m 90.813007,-15.60857 c 4.90978,-1.09566 9.57535,-3.546 13.51661,-7.09888 3.62668,-3.26928 7.38759,-9.76995 8.88471,-15.35705 0.66715,-2.48975 0.93634,-8.57282 0.50878,-11.49698 -1.47814,-10.10904 -9.76355,-19.83211 -20.12073,-23.61201 -5.27763,-1.9261 -12.12596,-2.28098 -17.489237,-0.9063 -4.65236,1.19247 -9.97769,4.29343 -13.64423,7.94509 -3.89539,3.87957 -6.4717,8.09991 -8.06615,13.21343 -0.73741,2.36493 -0.83925,3.09738 -0.95919,6.89893 -0.12653,4.01039 -0.0925,4.41804 0.59693,7.14375 1.63733,6.47363 4.27239,11.19972 8.70031,15.60437 3.78203,3.76215 7.03289,5.70087 11.95897,7.13196 5.673467,1.64821 10.415207,1.80527 16.113227,0.53369 z m -17.493457,-5.8014 c -3.31704,-1.54449 -4.4595,-5.75874 -2.39035,-8.81735 1.61669,-2.38979 4.45204,-3.10415 7.21477,-1.81776 2.145387,0.99895 3.309057,2.93357 3.332477,5.54031 0.0227,2.5297 -1.76165,4.72596 -4.421767,5.44239 -1.55044,0.41757 -2.22708,0.3546 -3.73513,-0.34759 z m 15.696217,0.21911 c -5.15839,-1.62673 -5.12296,-9.4299 0.0508,-11.18473 2.77808,-0.94228 5.65854,0.17826 6.95418,2.70527 1.51586,2.95654 0.40726,6.64431 -2.43581,8.10272 -1.36808,0.70179 -3.0886,0.84365 -4.56916,0.37674 z M 83.564283,158.50367 c -2.08597,-1.05656 -3.15833,-2.73282 -3.15049,-4.92469 0.0129,-3.60808 2.2694,-6.01734 5.66104,-6.04431 3.50351,-0.0279 5.95617,2.45573 5.96901,6.04431 0.005,1.3969 -0.11432,1.8035 -0.85409,2.91042 -1.0737,1.60659 -3.1278,2.74188 -4.96093,2.74188 -0.81504,0 -1.71114,-0.2447 -2.66454,-0.72761 z m 37.601247,0.3248 c -2.55835,-1.15049 -3.70426,-2.86747 -3.70426,-5.55032 0,-2.80105 1.28793,-4.6145 3.94242,-5.55106 1.55039,-0.54701 2.29959,-0.50385 3.85117,0.22187 3.4606,1.61862 4.75273,5.32005 2.96545,8.49483 -1.24442,2.21048 -4.78262,3.40647 -7.05478,2.38468 z m -18.14664,-3.66265 c -4.546117,-1.13094 -7.594037,-4.37324 -8.062307,-8.57647 -0.47647,-4.27687 1.57147,-7.96485 5.559737,-10.01215 1.32021,-0.6777 1.71292,-0.74767 4.23333,-0.75427 2.50657,-0.007 2.92357,0.0642 4.26614,0.72377 3.63792,1.78727 5.497,4.58062 5.71591,8.58839 0.10606,1.94188 0.0334,2.56931 -0.44391,3.83079 -1.63292,4.31599 -6.9913,7.26407 -11.2689,6.19994 z M 83.979863,143.22326 c -1.39563,-0.49369 -2.92693,-2.15891 -3.31742,-3.60752 -0.63137,-2.34222 0.22936,-5.14248 2.01155,-6.54436 2.39732,-1.88573 6.57508,-1.14289 8.42986,1.49891 0.65433,0.93196 0.81573,1.45856 0.89906,2.93336 0.10897,1.92839 -0.32955,3.19475 -1.55608,4.49367 -1.40361,1.48646 -4.22079,2.02051 -6.46697,1.22594 z m 37.414667,0.0491 c -3.40428,-1.26811 -4.84043,-4.72869 -3.31865,-7.99671 1.13023,-2.42714 3.11513,-3.48266 6.05301,-3.21883 1.96038,0.17605 3.04411,0.82849 4.03302,2.42801 0.70677,1.14318 0.79711,1.52147 0.79711,3.33778 0,1.85011 -0.0771,2.15818 -0.79617,3.18129 -1.42824,2.03214 -4.57313,3.08618 -6.76832,2.26846 z M 94.768663,132.46642 c -4.61432,-1.73269 -4.93685,-8.64363 -0.50355,-10.78976 4.52868,-2.1923 9.490977,1.81543 8.382237,6.76979 -0.76777,3.43076 -4.447607,5.30834 -7.878687,4.01997 z m 16.727857,0.29194 c -4.02561,-0.65421 -6.06488,-4.1128 -4.73181,-8.02514 1.09341,-3.20898 4.74611,-4.6152 8.11603,-3.12452 2.98893,1.32214 4.15935,5.42551 2.40886,8.44523 -1.05641,1.8224 -3.68103,3.04767 -5.79308,2.70443 z M 76.817753,108.82815 c 3.39052,-5.67531 7.74011,-13.027415 9.66576,-16.338015 1.92565,-3.31059 3.58324,-6.01927 3.68354,-6.01927 0.10031,0 1.566,1.11925 3.2571,2.48721 1.6911,1.36797 3.75938,2.993 4.59618,3.61118 l 1.52146,1.12397 -0.87978,-1.56066 c -3.28167,-5.82145 -6.61079,-11.66415 -7.67332,-13.4669 -0.68615,-1.16417 -1.75624,-2.99841 -2.37798,-4.07608 l -1.13042,-1.95941 -0.45409,0.90108 c -0.24975,0.49559 -1.72945,3.26866 -3.28822,6.16239 -1.55878,2.89372 -4.01115,7.59669 -5.44973,10.45104 -1.43858,2.85435 -2.97582,5.8052 -3.41609,6.55744 l -0.8005,1.36771 2.24212,-0.59872 c 1.23317,-0.3293 2.24417,-0.52805 2.24668,-0.44167 0.004,0.14927 -2.70977,7.316035 -5.18912,13.702225 -0.63245,1.62902 -1.38568,3.65308 -1.67386,4.49792 -0.28817,0.84483 -0.82494,2.30997 -1.19281,3.25586 -0.40123,1.03163 -0.50534,1.50805 -0.26019,1.19062 0.22477,-0.29104 3.18274,-5.1726 6.57327,-10.84792 z M 112.56985,87.406965 c 2.11335,-4.35845 3.90126,-7.98325 3.97313,-8.05512 0.0719,-0.0719 1.50716,1.23261 3.18952,2.89886 l 3.05884,3.02954 -0.69875,-1.45521 c -1.23356,-2.569 -1.84769,-3.74351 -4.49625,-8.59896 -6.92518,-12.695526 -9.22686,-16.801038 -9.41917,-16.801038 -0.11522,0 -1.39483,2.291953 -2.84358,5.093229 -1.44874,2.801276 -3.60155,6.906739 -4.78401,9.123239 -1.182457,2.21651 -2.149927,4.17638 -2.149927,4.35526 0,0.17889 2.010687,4.02085 4.468197,8.5377 2.4575,4.51684 4.66715,8.60699 4.91031,9.08922 0.24316,0.48222 0.55621,0.83873 0.69567,0.79225 0.13946,-0.0465 1.98266,-3.65052 4.09602,-8.00897 z m -95.397277,4.6894 c -1.01928,-0.51305 -1.97479,-2.24648 -5.21569,-9.46195 -1.51052,-3.363 -1.6231,-3.73422 -1.22234,-4.03039 1.07857,-0.7971 19.94683,-10.11201 26.41407,-13.040147 8.92859,-4.042546 18.82253,-8.124541 19.06835,-7.86713 0.0351,0.03676 1.39642,2.567143 3.02515,5.623081 1.85096,3.472907 3.01186,5.957644 3.09609,6.626766 0.20597,1.6361 -0.69574,2.54094 -3.43489,3.44679 -1.19654,0.3957 -3.36616,1.21828 -4.82137,1.82796 -1.45521,0.60967 -3.06255,1.26795 -3.57187,1.46283 -4.75058,1.81775 -17.25403,7.92407 -23.94844,11.69573 -2.18081,1.22868 -4.61995,2.60015 -5.42031,3.04772 -1.95922,1.09562 -2.82937,1.24224 -3.96875,0.66874 z M 189.6809,91.926355 c -0.65485,-0.33898 -3.09563,-1.68143 -5.42396,-2.98322 -2.32834,-1.3018 -6.63203,-3.5797 -9.56376,-5.06202 -7.95198,-4.0206 -13.16804,-6.33082 -23.46707,-10.39368 -5.01363,-1.97782 -4.99924,-2.3036 0.55432,-12.548856 0.94657,-1.74625 1.75287,-3.212317 1.79177,-3.257926 0.14036,-0.164567 13.42084,5.276314 18.94656,7.762218 3.10902,1.398683 10.45496,4.928094 16.32431,7.843134 10.53486,5.23218 10.66931,5.30905 10.49721,6.00132 -0.3495,1.40585 -5.21243,11.63662 -5.77412,12.14773 -1.40321,1.27688 -2.17832,1.37489 -3.88526,0.4913 z m 8.86354,-15.53566 c -1.34674,-0.95046 -19.56915,-10.054633 -26.19375,-13.086769 -2.7649,-1.265515 -7.56679,-3.298936 -10.67087,-4.518712 -7.64909,-3.005778 -7.03258,-2.601447 -6.95266,-4.559801 0.12664,-3.102837 -1.21738,-5.758052 -3.71161,-7.33259 -3.12242,-1.971097 -12.29791,-4.637465 -21.26278,-6.178894 -13.51452,-2.323703 -37.368147,-2.274303 -49.459617,0.10243 -1.02825,0.202115 -2.46486,0.444822 -3.19246,0.539348 -0.7276,0.09453 -1.73963,0.279549 -2.24896,0.411163 -0.50932,0.131614 -2.59846,0.653481 -4.64253,1.159704 -12.08744,2.993506 -15.20122,5.303076 -15.20122,11.275135 v 1.766043 l -5.4901,2.190426 c -5.116,2.041169 -8.88531,3.669048 -16.07344,6.941763 -4.25379,1.936731 -16.48292,8.076014 -19.7632,9.921544 -3.66703,2.06314 -3.56428,2.03127 -3.8018304,1.17917 -0.93326,-3.34772 -1.15663,-8.609217 -0.50518,-11.899793 1.0853204,-5.482096 1.9249704,-7.741642 4.5154104,-12.1511 2.99902,-5.104972 6.45424,-8.596338 11.91038,-12.034978 3.52831,-2.22366 17.42533,-9.225641 21.40611,-10.785415 7.00474,-2.744641 14.81113,-5.114864 23.94144,-7.269239 5.40321,-1.274936 13.87243,-2.542501 20.5052,-3.068959 5.56768,-0.441919 25.985757,-0.198297 30.823957,0.367781 7.60316,0.889583 16.02997,2.387048 21.16667,3.761366 0.21828,0.0584 1.05172,0.278198 1.85208,0.488438 11.0148,2.893372 19.83447,6.364323 30.82396,12.130662 8.01323,4.204658 11.52149,6.578317 14.84628,10.044872 6.30388,6.572672 10.20949,16.087844 9.80408,23.885535 -0.0832,1.60073 -0.215,3.20808 -0.29285,3.57188 -0.0778,0.3638 -0.28092,1.3163 -0.45128,2.11666 -0.17037,0.80037 -0.38022,1.52812 -0.46633,1.61723 -0.0861,0.0891 -0.63282,-0.1741 -1.2149,-0.5849 z"
       id="path1" /></g></svg>
